<?xml version="1.0" encoding="utf-8"?>
<!-- Generator: Adobe Illustrator 18.1.1, SVG Export Plug-In . SVG Version: 6.00 Build 0)  -->
<svg version="1.1" id="Layer_1" xmlns="http://www.w3.org/2000/svg" xmlns:xlink="http://www.w3.org/1999/xlink" x="0px" y="0px"
	 viewBox="0 0 72 72" enable-background="new 0 0 72 72" xml:space="preserve">
<polygon id="_x2E_svg_8629_" fill="#0098CC" points="70.5,37.4 32.1,38.9 31.2,16 64.5,14.6 "/>
<circle id="_x2E_svg_8631_" fill="#3F3E3F" cx="36.2" cy="35.6" r="33.2"/>
<path id="_x2E_svg_8628_" fill="#FFED97" d="M33.8,18L3.8,28.2c0,0-5.1,39.8,35.7,35.9l18-6.2l10.1-22.3
	C67.6,35.7,57.6,18.3,33.8,18z"/>
<path id="_x2E_svg_8627_" fill="#90C5EB" d="M29.5,40.2c1.1,3.8-1.7,7.5-5.6,7.5s-7.2-3.2-7.2-7.2s3.2-7.2,7.2-7.2
	S28.3,36.1,29.5,40.2z"/>
<path id="_x2E_svg_8626_" fill="#4D66AB" d="M27.8,46.5c-1.1,0.8-2.5,1.2-4,1.2c-4,0-7.2-3.2-7.2-7.2c0-2.4,1.2-4.5,3-5.8
	c0,0-2.5,5.9,3.3,7S27.8,46.5,27.8,46.5z"/>
<path id="_x2E_svg_8625_" fill="#90C5EB" d="M23.8,33.4c0,0,3.7-1.7,3.8-3.7c0-0.2,0.2-0.3,0.4-0.1c1,1.1,3,4.1-0.4,6.3
	C23.3,38.8,23.8,33.4,23.8,33.4z"/>
<polygon id="_x2E_svg_8624_" fill="#848687" points="70.5,37.4 32.1,38.9 31.2,16 64.5,14.6 "/>
<path id="_x2E_svg_8623_" fill="#9C4343" d="M3.8,43.8c0,0,1-7.2,7.8-3.3l14-1.1c0,0,4.8-8.5,9.1,1.5s2.7,17,5.2,18.2
	s10.8-4.8,14.2-4.8c3.3,0,4,7,4,7s-18.8,14.4-32.5,6S5.5,56,3.8,43.8z"/>
<polygon id="_x2E_svg_8622_" fill="#CF4450" points="70.4,35.2 34.5,36.7 33.8,18 64.9,16.8 "/>
<polygon id="_x2E_svg_8621_" fill="#723334" points="44.1,58.2 42.3,58.9 47.3,60.2 54,56.2 "/>
<path id="_x2E_svg_8620_" fill="#723334" d="M28.5,36.4c0,0-2.2,5.5,0.5,10s7.3,10.7,6.6,15.5s10.3,3.4,12.9,0.3
	c2.6-3.1,8.3-4.7,8.8-4.9l0.9,4.4c0,0-35.5,23.5-51.9-8.9c0,0-6-9.9,0.5-13.3c0,0,1.7,0.5,2.4,2.7c0.7,2.2,16.6-1.1,16.6-1.1
	S25,38.5,28.5,36.4z"/>
<path id="_x2E_svg_8613_" fill="#0098CC" d="M0,36c0,19.9,16.1,36,36,36s36-16.1,36-36C72,16.1,55.9,0,36,0S0,16.1,0,36z M4.4,35.7
	C4.4,18.2,18.5,4.1,36,4.1s31.6,14.1,31.6,31.6c0,17.5-14.1,31.6-31.6,31.6S4.4,53.1,4.4,35.7z"/>
<polygon id="_x2E_svg_8619_" fill="#0098CC" points="44.1,58.2 47.8,58.9 54,56.2 54,54.7 50.3,54.3 43.9,57 "/>
<path id="_x2E_svg_8618_" fill="#CF4450" d="M50.4,54.6V55c0,0.1,0.3,0.2,0.7,0.2c0.4,0,0.7-0.1,0.7-0.2v-0.4H50.4z"/>
<ellipse id="_x2E_svg_8617_" fill="#D35D68" cx="51.1" cy="54.6" rx="0.7" ry="0.2"/>
<polygon id="_x2E_svg_8616_" fill="#4D66AB" points="43.9,57 47.8,57.7 47.8,58.9 44.1,58.2 "/>
<polygon id="_x2E_svg_8615_" fill="#4D66AB" points="47.8,57.7 54,54.7 54,56.2 47.8,58.9 "/>
<g id="_x2E_svg_8609_">
	
		<ellipse transform="matrix(1 2.911659e-03 -2.911659e-03 1 6.960754e-02 -0.1513)" fill="#FFFFFF" cx="52" cy="23.8" rx="4.8" ry="4.5"/>
	<g>
		<path fill="#FFFFFF" d="M52,28.7c-0.4,0-0.7,0-1-0.1c0.8,0.8-0.7,1.3-1,1.4c0,0-0.1,0-0.1,0c-0.3,0.1-0.5,0.2-0.5,0.3
			c0,0.2,1.1,0.4,2.5,0.4c1.4,0,2.5-0.2,2.5-0.4c0-0.1-0.2-0.2-0.5-0.3c0,0,0,0,0,0c0,0,0,0,0,0l0,0c0,0-1.8-0.6-1-1.4
			C52.6,28.6,52.3,28.7,52,28.7z"/>
		<path fill="#FFFFFF" d="M55.3,30.5c0.1,0.1,0.1,0.1,0.1,0.2c0,0.4-1.6,0.7-3.6,0.7c-2,0-3.6-0.3-3.6-0.7c0-0.1,0-0.1,0.1-0.2
			c-0.7,0.2-1.2,0.4-1.2,0.6c0,0.5,2.1,0.9,4.6,0.9c2.5,0,4.6-0.4,4.6-0.9C56.5,30.9,56,30.7,55.3,30.5z"/>
	</g>
</g>
<polygon id="_x2E_svg_8614_" fill="#84B841" points="49,55.3 50.1,55 50,55.4 "/>
<polygon id="_x2E_svg_8612_" fill="#84B841" points="47.8,55.9 47.6,56.3 48.7,56 "/>
<polygon id="_x2E_svg_8611_" fill="#007D40" points="49,55.3 49,55.6 49.9,55.8 50.1,55.4 50.1,55 49.9,55.4 "/>
<polygon id="_x2E_svg_8610_" fill="#007D40" points="48.7,56 48.7,56.3 47.6,56.6 47.6,56.3 "/>
<g>
</g>
<g>
</g>
<g>
</g>
<g>
</g>
<g>
</g>
<g>
</g>
<g>
</g>
<g>
</g>
<g>
</g>
<g>
</g>
<g>
</g>
<g>
</g>
<g>
</g>
<g>
</g>
<g>
</g>
</svg>
