<?xml version="1.0" encoding="utf-8"?>
<!-- Generator: Adobe Illustrator 18.1.1, SVG Export Plug-In . SVG Version: 6.00 Build 0)  -->
<svg version="1.1" id="Layer_1" xmlns="http://www.w3.org/2000/svg" xmlns:xlink="http://www.w3.org/1999/xlink" x="0px" y="0px"
	 viewBox="0 0 72 72" enable-background="new 0 0 72 72" xml:space="preserve">
<circle id="_x2E_svg_3040_" fill="#3F3E3F" cx="36.3" cy="36.4" r="34.3"/>
<path id="_x2E_svg_3031_" fill="#F2EFAE" d="M61.6,36.1l-2.5-0.8v-1.5c0,0-2-1-4.9-1.9s-2-0.1-3.6-1.6s-3.1,1.1-3.1,1.1l0,0.1
	l-1.3-0.4l0,0c-0.6-1.2-1.8-2-3.2-2c-1.9,0-3.5,1.6-3.5,3.5c0,1.9,1.6,3.5,3.5,3.5c0.8,0,1.5-0.3,2-0.7l0.6,0.1L45.4,36l1.2,1.4
	l7.4,1.2c0,0,1.8,17.4,0,18.4c-1,0.6-4.2-0.5-7.3-2c0.1-0.8,0.1-1.4-0.2-1.6c-1.4-1.2-9-3-9-3h0c-2.2-0.6-4.5-0.6-5.8-0.5
	c0.3-0.6,2.8-4.9-3.2-5.8c-0.3-0.1-0.7-0.1-1-0.2c0.4-1.7,0.7-2.2,0.7-2.2l0,0c1,0,2.1-0.1,3.1-0.3c6-1.4,6.4-5.9,5.3-11.5
	c1.5-0.2,4.8-0.6,3.4-1.4c-1.3-0.7-3.3-2.8-4.6-4c-0.9-3.4-2-6.3-4-7.9l0,0c0,0,3.1-6.5-2.9-7S26.9,13,23,14s-9.8,3-9.1,6.5
	s-4,6.8,1.2,9.9l0.1-0.1c0.1,0.4,0.1,0.8,0.2,1.2c0.5,2.1,1.5,3.9,2.7,5.4c0.1,0.8,0.2,2.1,0.1,3.4c-3.3-0.9-3.7,4.5-3.7,4.5
	c-5.3,0.6-9.4,4.7-9.4,4.7C15.9,74.5,44.2,69.8,40.5,69c-2.2-0.4-4.7-4.8-5.6-8.3c4.2,1.5,10.5,3.7,9.7,2.6
	c-0.4-0.6-0.1-1.9,0.5-3.5c5.2,2.5,10.8,4.7,12.9,1.5c3.3-5.1,1.6-20.6,1.2-23.5l2.4,0.4V36.1z"/>
<path id="_x2E_svg_3030_" fill="none" stroke="#F2EFAE" stroke-miterlimit="10" d="M61.6,37.2c1,0,6.1-0.6,6.2,6.1
	S44.8,60.5,44.6,67.9"/>
<path id="_x2E_svg_3035_" fill="#6EC498" d="M36,0C16.1,0,0,16.1,0,36c0,19.9,16.1,36,36,36s36-16.1,36-36C72,16.1,55.9,0,36,0z
	 M36,67.3c-17.5,0-31.6-14.1-31.6-31.6C4.4,18.2,18.6,4.1,36,4.1s31.6,14.1,31.6,31.6C67.6,53.1,53.5,67.3,36,67.3z"/>
<g>
</g>
<g>
</g>
<g>
</g>
<g>
</g>
<g>
</g>
<g>
</g>
<g>
</g>
<g>
</g>
<g>
</g>
<g>
</g>
<g>
</g>
<g>
</g>
<g>
</g>
<g>
</g>
<g>
</g>
</svg>
