<?xml version="1.0" encoding="utf-8"?>
<!-- Generator: Adobe Illustrator 18.1.1, SVG Export Plug-In . SVG Version: 6.00 Build 0)  -->
<svg version="1.1" id="Layer_1" xmlns="http://www.w3.org/2000/svg" xmlns:xlink="http://www.w3.org/1999/xlink" x="0px" y="0px"
	 viewBox="0 0 72.1 72.1" enable-background="new 0 0 72.1 72.1" xml:space="preserve">
<circle id="_x2E_svg_1932_" fill="#90C5EB" cx="36.1" cy="36.1" r="34.2"/>
<path id="_x2E_svg_1931_" fill="#4F67AB" d="M36.1,0C16.1,0,0,16.1,0,36.1s16.1,36.1,36.1,36.1S72.1,56,72.1,36.1S56,0,36.1,0z
	 M36.1,67.4c-17.5,0-31.7-14.1-31.7-31.7S18.6,4.1,36.1,4.1s31.7,14.1,31.7,31.7C67.7,53.2,53.6,67.4,36.1,67.4z"/>
<circle id="_x2E_svg_1930_" fill="#0098CC" cx="36.1" cy="36.1" r="34.2"/>
<path id="_x2E_svg_1924_" fill="#CF4450" d="M36.1,0C16.1,0,0,16.1,0,36.1s16.1,36.1,36.1,36.1S72.1,56,72.1,36.1S56,0,36.1,0z
	 M36.1,67.4c-17.5,0-31.7-14.1-31.7-31.7S18.6,4.1,36.1,4.1s31.7,14.1,31.7,31.7C67.7,53.2,53.6,67.4,36.1,67.4z"/>
<ellipse id="_x2E_svg_1921_" fill="#EACB46" cx="36.1" cy="26.3" rx="18" ry="18.3"/>
<g id="_x2E_svg_1920_">
	<path fill="#CF4450" d="M54.4,27.7c1.1-1.6,1.5-2.3,2-3.6c-0.6-1.1-1.1-1.8-2.4-3.2c0.7-2,0.9-2.8,1.3-4.5
		c-1.3-0.8-2.1-1.1-4.1-1.8c-0.1-2.1-0.2-3.1-0.3-4.9C49,9.8,48.1,9.8,46,9.9c-0.9-1.9-1.4-2.7-2.3-3.7c-1.5,0.5-2.4,0.8-4.2,1.6
		c-1.5-1.2-2.2-1.7-3.4-2.2c-1.2,0.5-1.9,1-3.4,2.2c-1.9-0.8-2.7-1.1-4.2-1.6c-0.9,1-1.4,1.8-2.3,3.7c-2.1-0.1-3-0.1-4.9-0.1
		c-0.1,1.8-0.2,2.8-0.3,4.9c-2,0.7-2.8,1.1-4.1,1.8c0.4,1.6,0.7,2.5,1.4,4.5c-1.3,1.4-1.8,2.1-2.4,3.2c0.5,1.3,0.9,2,2,3.6
		c-0.9,1.8-1.2,2.6-1.7,4c0.8,1.1,1.4,1.6,3.2,2.7c-0.2,2-0.3,2.9-0.6,4.7c1.7,0.4,2.6,0.5,4.7,0.8c0.5,2,0.8,2.9,1.4,4.4
		c1.7-0.4,2.6-0.4,4.6-1c1.3,1.4,1.9,2,3,2.6c1.3-0.5,2.1-0.8,3.7-1.8c1.7,0.9,2.4,1.3,3.7,1.8c1.1-0.6,1.7-1.2,3-2.6
		c2,0.6,2.9,0.6,4.6,1c0.6-1.5,0.8-2.4,1.3-4.4c2.1-0.3,3-0.5,4.7-0.8c-0.2-1.8-0.3-2.7-0.6-4.7c1.7-1.1,2.4-1.7,3.1-2.7
		C55.6,30.2,55.2,29.4,54.4,27.7z M36.1,43.2c-9.7,0-17.4-7.7-17.4-17.4c0-9.7,7.7-17.4,17.4-17.4c9.7,0,17.4,7.7,17.4,17.4
		C53.5,35.5,45.8,43.2,36.1,43.2z"/>
</g>
<circle id="_x2E_svg_1919_" fill="#CF4450" cx="36.1" cy="25.8" r="14.3"/>
<polygon id="_x2E_svg_1918_" fill="#CF4450" points="27.6,42.3 19.1,61.9 27.9,59 32.3,67.2 37.4,44.1 "/>
<polygon id="_x2E_svg_1917_" fill="#CF4450" points="44.1,42 53.7,60.6 44.8,58.3 40.8,66.7 34.1,44.6 "/>
<g id="_x2E_svg_1922_">
	<g>
		<path fill="#FFFFFF" d="M28.3,17.6C28.3,17.5,28.3,17.5,28.3,17.6c0.1-0.1,0.1-0.1,0.1-0.1h0.8c0,0,0,0,0.1,0s0,0,0,0
			c0.3,0.6,0.5,1.1,0.8,1.7s0.6,1.2,0.8,1.8c0.1,0.2,0.2,0.4,0.3,0.5s0.1,0.3,0.2,0.5s0.1,0.3,0.2,0.5s0.2,0.3,0.3,0.5v-5.4
			c0,0,0-0.1,0-0.1c0,0,0.1,0,0.1,0h0.8c0,0,0.1,0,0.1,0s0,0.1,0,0.1v7.5l0,0c0,0,0,0.1,0,0.1s-0.1,0-0.1,0H32c0,0,0,0-0.1,0
			s0,0,0,0c-0.1-0.2-0.2-0.4-0.3-0.7s-0.2-0.4-0.3-0.7c-0.2-0.4-0.4-0.8-0.5-1.1s-0.3-0.7-0.5-1s-0.3-0.7-0.5-1s-0.3-0.7-0.5-1.1
			v5.5c0,0,0,0.1,0,0.1s-0.1,0-0.1,0h-0.8c0,0-0.1,0-0.1,0s0-0.1,0-0.1V17.6z"/>
		<path fill="#FFFFFF" d="M33.8,19.5c-0.3,0-0.5-0.2-0.5-0.5s0.2-0.5,0.5-0.5c0.3,0,0.5,0.2,0.5,0.5S34.1,19.5,33.8,19.5z
			 M34.2,20.3C34.2,20.3,34.2,20.3,34.2,20.3c0.1,0.1,0.1,0.1,0.1,0.1v4.7c0,0,0,0.1,0,0.1s-0.1,0-0.1,0h-0.8c0,0-0.1,0-0.1,0
			s0-0.1,0-0.1v-4.7c0,0,0-0.1,0-0.1s0.1,0,0.1,0H34.2z"/>
		<path fill="#FFFFFF" d="M36.9,20.3c0.5,0,1,0.1,1.3,0.3s0.6,0.5,0.8,1c0,0,0,0.1,0,0.1s-0.1,0-0.1,0H38c0,0-0.1,0-0.1,0
			c-0.1-0.1-0.2-0.3-0.4-0.3s-0.4-0.1-0.6-0.1c-0.9,0-1.3,0.5-1.3,1.5s0.4,1.5,1.3,1.5c0.2,0,0.5,0,0.6-0.1s0.3-0.2,0.4-0.3
			c0,0,0.1,0,0.1,0h0.9c0,0,0.1,0,0.1,0s0,0.1,0,0.1c-0.2,0.4-0.5,0.8-0.8,1s-0.8,0.3-1.3,0.3c-0.4,0-0.7-0.1-1-0.2
			s-0.5-0.3-0.7-0.5s-0.4-0.5-0.5-0.8s-0.2-0.7-0.2-1c0-0.4,0.1-0.7,0.2-1s0.3-0.6,0.5-0.8s0.4-0.4,0.7-0.5S36.5,20.3,36.9,20.3z"/>
		<path fill="#FFFFFF" d="M41.5,20.3c0.4,0,0.7,0.1,1,0.2s0.5,0.3,0.7,0.5s0.4,0.5,0.5,0.8s0.2,0.7,0.2,1c0,0.1,0,0.3,0,0.4
			c0,0,0,0.1,0,0.1s0,0-0.1,0h-3.5c0.1,0.3,0.2,0.6,0.4,0.8s0.5,0.2,0.9,0.2c0.2,0,0.5,0,0.6-0.1s0.3-0.2,0.4-0.3c0,0,0.1,0,0.1,0
			h0.9c0,0,0.1,0,0.1,0s0,0.1,0,0.1c-0.2,0.4-0.5,0.8-0.8,1s-0.8,0.3-1.3,0.3c-0.4,0-0.7-0.1-1-0.2s-0.5-0.3-0.7-0.5
			s-0.4-0.5-0.5-0.8s-0.2-0.7-0.2-1c0-0.4,0.1-0.7,0.2-1s0.3-0.6,0.5-0.8s0.4-0.4,0.7-0.5S41.2,20.3,41.5,20.3z M42.8,22.3
			c-0.1-0.3-0.2-0.6-0.4-0.7s-0.5-0.3-0.9-0.3c-0.4,0-0.6,0.1-0.9,0.3s-0.4,0.4-0.4,0.7H42.8z"/>
	</g>
</g>
<g id="_x2E_svg_1916_">
	<path fill="#FFFFFF" d="M31.3,28.9C31.3,28.9,31.4,28.9,31.3,28.9c0.1,0.1,0.1,0.1,0.1,0.1v5.6c0,0.7-0.2,1.2-0.5,1.5
		s-0.9,0.5-1.6,0.5c0,0-0.1,0-0.1,0s0-0.1,0-0.1v-0.8c0,0,0-0.1,0-0.1s0.1,0,0.1,0c0.4,0,0.7-0.1,0.8-0.2s0.3-0.4,0.3-0.8V29
		c0,0,0-0.1,0-0.1s0.1,0,0.1,0H31.3z M30.9,28.1c-0.3,0-0.5-0.2-0.5-0.5s0.2-0.5,0.5-0.5c0.3,0,0.5,0.2,0.5,0.5S31.3,28.1,30.9,28.1
		z"/>
	<path fill="#FFFFFF" d="M34,28.9c0.4,0,0.7,0.1,1,0.2s0.5,0.3,0.7,0.5s0.4,0.5,0.5,0.8s0.2,0.7,0.2,1c0,0.4-0.1,0.7-0.2,1
		s-0.3,0.6-0.5,0.8s-0.4,0.4-0.7,0.5s-0.6,0.2-1,0.2c-0.4,0-0.7-0.1-1-0.2s-0.5-0.3-0.7-0.5s-0.4-0.5-0.5-0.8s-0.2-0.7-0.2-1
		c0-0.4,0.1-0.7,0.2-1s0.3-0.6,0.5-0.8s0.4-0.4,0.7-0.5S33.6,28.9,34,28.9z M35,30.3c-0.2-0.2-0.6-0.4-1-0.4c-0.9,0-1.3,0.5-1.3,1.5
		c0,1,0.4,1.5,1.3,1.5c0.4,0,0.8-0.1,1-0.4s0.3-0.6,0.3-1.1C35.3,30.9,35.2,30.5,35,30.3z"/>
	<path fill="#FFFFFF" d="M37.5,26.1C37.5,26.1,37.6,26.1,37.5,26.1c0.1,0.1,0.1,0.1,0.1,0.1v3.1c0.4-0.2,0.8-0.4,1.3-0.4
		c0.4,0,0.7,0.1,1,0.2s0.5,0.3,0.7,0.5s0.4,0.5,0.5,0.8s0.2,0.7,0.2,1c0,0.4-0.1,0.7-0.2,1s-0.3,0.6-0.5,0.8s-0.4,0.4-0.7,0.5
		s-0.6,0.2-1,0.2c-0.3,0-0.5,0-0.7-0.1s-0.4-0.1-0.6-0.3c0,0,0,0.1,0,0.1s0,0.1,0,0.1c0,0,0,0.1,0,0.1s-0.1,0-0.1,0h-0.8
		c0,0-0.1,0-0.1,0s0-0.1,0-0.1v-2.2c0,0,0,0,0-0.1s0-0.1,0-0.1s0-0.1,0-0.1s0-0.1,0-0.1c0-0.8,0-1.7,0-2.5s0-1.7,0-2.5
		c0,0,0-0.1,0-0.1s0.1,0,0.1,0H37.5z M37.6,31.5c0,0.4,0.2,0.8,0.4,1s0.5,0.4,1,0.4c0.4,0,0.8-0.1,1-0.4s0.3-0.6,0.3-1.1
		c0-1-0.4-1.5-1.3-1.5c-0.4,0-0.8,0.1-1,0.4s-0.3,0.6-0.4,1V31.5z"/>
	<path fill="#FFFFFF" d="M41.8,32.4C41.7,32.4,41.7,32.4,41.8,32.4c-0.1,0-0.1-0.1-0.1-0.1l-0.3-3v-3c0,0,0-0.1,0-0.1s0.1,0,0.1,0h1
		c0,0,0.1,0,0.1,0s0,0.1,0,0.1v3l-0.3,3c0,0,0,0.1,0,0.1s0,0-0.1,0H41.8z M41.4,32.7C41.4,32.7,41.4,32.7,41.4,32.7
		c0.1-0.1,0.1-0.1,0.1-0.1h1c0,0,0.1,0,0.1,0s0,0.1,0,0.1v1c0,0,0,0.1,0,0.1s-0.1,0-0.1,0h-1c0,0-0.1,0-0.1,0s0-0.1,0-0.1V32.7z"/>
</g>
<g>
</g>
<g>
</g>
<g>
</g>
<g>
</g>
<g>
</g>
<g>
</g>
<g>
</g>
<g>
</g>
<g>
</g>
<g>
</g>
<g>
</g>
<g>
</g>
<g>
</g>
<g>
</g>
<g>
</g>
</svg>
